# xmcd
#
# Track frame offsets:
#	150
#	15928
#	32682
#	48375
#	64223
#	84113
#	97287
#	109538
#	122854
#	140638
#	176914
#
# Disc length: 2662 seconds
#
# Revision: 0
# Processed by: cddbd v1.5.2PL0 Copyright (c) Steve Scherf et al.
# Submitted via: EasyCDDAExtractor 12.0.0.1
#
DISCID=910a640b
DTITLE=가요톱텐 - No.1 Song of This Week
DYEAR=2009
DGENRE=Rock and Roll
TTITLE0=불티
TTITLE1=질투
TTITLE2=기분 좋은날
TTITLE3=핑계
TTITLE4=언젠가는
TTITLE5=오직 하나뿐인 그대
TTITLE6=바람아 머추어 다오
TTITLE7=개똥벌레
TTITLE8=사랑할꺼야
TTITLE9=D.D.D
TTITLE10=히든트랙
EXTD=
EXTT0=
EXTT1=
EXTT2=
EXTT3=
EXTT4=
EXTT5=
EXTT6=
EXTT7=
EXTT8=
EXTT9=
EXTT10=
PLAYORDER=
